<?xml version="1.0" encoding="UTF-8"?>
<svg version="1.1" xmlns="http://www.w3.org/2000/svg" width="128" height="128">
<path d="M0 0 C13.4049791 10.08466889 22.8895283 24.50756459 25.4140625 41.22265625 C27.18485288 61.98721061 23.29842818 79.57058598 9.65625 95.8125 C-1.52088628 107.82694788 -16.23240541 115.81854174 -32.78515625 116.55859375 C-53.04635469 116.8915543 -69.39297325 112.35679155 -84.5859375 98.22265625 C-98.11616884 84.40360224 -103.01172963 68.53868692 -102.95166016 49.61206055 C-102.62380549 31.62065989 -94.95829184 16.37822505 -82.15625 3.84375 C-58.82102307 -16.61785106 -25.26462465 -17.36465894 0 0 Z " fill="#000001" transform="translate(102.5859375,11.77734375)"/>
<path d="M0 0 C3.89444223 0.1342488 7.78999536 0.19262194 11.68609619 0.25787354 C19.29784229 0.39629916 26.90410737 0.61740594 34.51226807 0.89263916 C33.03567834 7.69831616 28.88992112 12.73849641 23.23205566 16.63916016 C13.33913468 21.19854882 -0.30976774 19.19214642 -10.97546387 18.78527832 C-14.8699061 18.65102952 -18.76545922 18.59265638 -22.66156006 18.52740479 C-30.27330616 18.38897916 -37.87957124 18.16787238 -45.48773193 17.89263916 C-44.01114221 11.08696216 -39.86538498 6.04678191 -34.20751953 2.14611816 C-24.31459855 -2.4132705 -10.66569613 -0.4068681 0 0 Z " fill="#7A62E8" transform="translate(69.48773193359375,82.10736083984375)"/>
<path d="M0 0 C3.83410387 0.1342734 7.66933755 0.19262689 11.50512695 0.25787354 C18.99843279 0.39628044 26.48616781 0.61737113 33.97583008 0.89263916 C33.97583008 4.34001422 33.64557204 4.61542014 31.38598633 6.99420166 C30.8490918 7.56654541 30.31219727 8.13888916 29.7590332 8.72857666 C29.19120117 9.31896729 28.62336914 9.90935791 28.03833008 10.51763916 C27.19238281 11.41482666 27.19238281 11.41482666 26.3293457 12.33013916 C21.07966602 17.88788388 21.07966602 17.88788388 18.34996033 18.01289368 C17.17969803 18.01067307 16.00943573 18.00845245 14.80371094 18.00616455 C13.83788841 18.00638359 13.83788841 18.00638359 12.85255432 18.00660706 C10.71522705 18.00590801 8.57798595 17.99811607 6.44067383 17.99029541 C4.96236722 17.9884312 3.48406 17.98700731 2.00575256 17.98600769 C-1.89215795 17.98218275 -5.79003141 17.97235268 -9.68792725 17.96130371 C-13.66263325 17.95108908 -17.63734521 17.94650996 -21.61206055 17.94146729 C-29.41611392 17.93073038 -37.22013674 17.91365425 -45.02416992 17.89263916 C-43.55329188 11.09415866 -39.36186673 6.05092579 -33.72247314 2.14611816 C-23.97280524 -2.38302589 -10.52159252 -0.40778519 0 0 Z " fill="#32CBB8" transform="translate(69.024169921875,31.10736083984375)"/>
<path d="M0 0 C8.36283976 -0.3267156 16.72294874 -0.57425447 25.09062386 -0.72537041 C28.97793502 -0.79796539 32.86083457 -0.8960894 36.74560547 -1.05615234 C65.32313511 -2.2038812 65.32313511 -2.2038812 73.318573 4.97311401 C80 12.24132124 80 12.24132124 80 16 C71.63716024 16.3267156 63.27705126 16.57425447 54.90937614 16.72537041 C51.02206498 16.79796539 47.13916543 16.8960894 43.25439453 17.05615234 C14.67686489 18.2038812 14.67686489 18.2038812 6.681427 11.02688599 C0 3.75867876 0 3.75867876 0 0 Z " fill="#5697D5" transform="translate(24,58)"/>
</svg>
